HIERARCHY
ROOT joint_Root
{
	OFFSET 0.0 0.0 0.0
	CHANNELS 6 Xposition Yposition Zposition Zrotation Xrotation Yrotation 
	JOINT Hips
	{
		OFFSET -0.726466 93.3139 -2.00062
		CHANNELS 6 Xposition Yposition Zposition Zrotation Xrotation Yrotation 
		JOINT Spine
		{
			OFFSET 15.7357 0.0 0.0
			CHANNELS 6 Xposition Yposition Zposition Zrotation Xrotation Yrotation 
			JOINT Chest
			{
				OFFSET 8.98455 -0.406207 0.0
				CHANNELS 6 Xposition Yposition Zposition Zrotation Xrotation Yrotation 
				JOINT Neck
				{
					OFFSET 16.3773 0.0 0.0
					CHANNELS 6 Xposition Yposition Zposition Zrotation Xrotation Yrotation 
					JOINT Head
					{
						OFFSET 6.45672 0.0 0.0
						CHANNELS 6 Xposition Yposition Zposition Zrotation Xrotation Yrotation 
						End Site
						{
							OFFSET 0.0 0.0 0.0
						}
					}
				}
				JOINT Shoulder_L
				{
					OFFSET 12.9942 -0.242716 4.98039
					CHANNELS 6 Xposition Yposition Zposition Zrotation Xrotation Yrotation 
					JOINT UpperArm_L
					{
						OFFSET 5.34809 0.0 0.0
						CHANNELS 6 Xposition Yposition Zposition Zrotation Xrotation Yrotation 
						JOINT LowerArm_L
						{
							OFFSET 24.3286 1.87007e-05 0.0
							CHANNELS 6 Xposition Yposition Zposition Zrotation Xrotation Yrotation 
							JOINT Hand_L
							{
								OFFSET 22.2916 0.0 0.0
								CHANNELS 6 Xposition Yposition Zposition Zrotation Xrotation Yrotation 
								End Site
								{
									OFFSET 0.0 0.0 0.0
								}
							}
						}
					}
				}
				JOINT Shoulder_R
				{
					OFFSET 12.9945 -0.242716 -4.98039
					CHANNELS 6 Xposition Yposition Zposition Zrotation Xrotation Yrotation 
					JOINT UpperArm_R
					{
						OFFSET -5.34813 0.0 0.0
						CHANNELS 6 Xposition Yposition Zposition Zrotation Xrotation Yrotation 
						JOINT LowerArm_R
						{
							OFFSET -24.3289 0.000322201 0.0
							CHANNELS 6 Xposition Yposition Zposition Zrotation Xrotation Yrotation 
							JOINT Hand_R
							{
								OFFSET -22.2915 -0.000108084 0.0
								CHANNELS 6 Xposition Yposition Zposition Zrotation Xrotation Yrotation 
								End Site
								{
									OFFSET 0.0 0.0 0.0
								}
							}
						}
					}
				}
			}
		}
		JOINT UpperLeg_L
		{
			OFFSET -2.19248 -6.46944 0.0
			CHANNELS 6 Xposition Yposition Zposition Zrotation Xrotation Yrotation 
			JOINT LowerLeg_L
			{
				OFFSET 39.0811 0.0 -1.23785e-05
				CHANNELS 6 Xposition Yposition Zposition Zrotation Xrotation Yrotation 
				JOINT Foot_L
				{
					OFFSET 40.9854 0.0 -1.26872e-05
					CHANNELS 6 Xposition Yposition Zposition Zrotation Xrotation Yrotation 
					JOINT Toes_L
					{
						OFFSET 11.7543 0.0 0.0
						CHANNELS 6 Xposition Yposition Zposition Zrotation Xrotation Yrotation 
						End Site
						{
							OFFSET 0.0 0.0 0.0
						}
					}
				}
			}
		}
		JOINT UpperLeg_R
		{
			OFFSET -2.19251 6.46944 0.0
			CHANNELS 6 Xposition Yposition Zposition Zrotation Xrotation Yrotation 
			JOINT LowerLeg_R
			{
				OFFSET -39.0811 -0.00228153 -0.0401928
				CHANNELS 6 Xposition Yposition Zposition Zrotation Xrotation Yrotation 
				JOINT Foot_R
				{
					OFFSET -40.9854 0.0 0.0
					CHANNELS 6 Xposition Yposition Zposition Zrotation Xrotation Yrotation 
					JOINT Toes_R
					{
						OFFSET -11.7543 0.0 0.0
						CHANNELS 6 Xposition Yposition Zposition Zrotation Xrotation Yrotation 
						End Site
						{
							OFFSET 0.0 0.0 0.0
						}
					}
				}
			}
		}
	}
}
MOTION
Frames:	6
Frame Time:	0.0333333
0.000000 0.000000 0.000000 0.000000 0.000000 -0.000000 0.816488 92.368400 -3.228640 87.461400 -3.892910 5.920840 15.735700 0.000005 -0.000001 89.570800 85.399900 -89.979500 8.984550 -0.406207 -0.000000 1.433790 -0.046309 -0.816202 16.377300 -0.000001 -0.000001 5.600140 -1.821210 2.929590 6.456720 -0.000001 -0.000000 6.047790 -2.305200 -0.667051 12.994200 -0.242716 4.980390 -89.748500 -0.780095 -72.131900 5.348090 -0.000007 -0.000001 -66.880300 40.612800 -14.295000 24.328600 0.000019 0.000005 1.343530 3.344750 -21.898700 22.291600 -0.000001 0.000005 4.270600 5.506910 -6.814160 12.994500 -0.242716 -4.980390 89.961100 0.119331 -71.950000 -5.348130 -0.000001 -0.000004 -76.321100 -25.916300 -91.050400 -24.328900 0.000322 -0.000009 11.252800 -0.097303 -90.490500 -22.291500 -0.000108 -0.000004 20.457300 5.385620 -2.475850 -2.192480 -6.469440 -0.000000 -176.155000 -5.990840 -2.188170 39.081100 -0.000007 -0.000012 -0.066307 0.150209 23.818300 40.985400 -0.000006 -0.000013 0.597635 1.301350 -65.871700 11.754300 -0.000000 0.000003 -0.000043 -0.000492 -16.596700 -2.192510 6.469440 -0.000001 179.471000 11.333200 -179.449000 -39.081100 -0.002282 -0.040193 -0.003423 0.018949 19.594000 -40.985400 0.000008 0.000006 3.144390 7.510870 -64.566800 -11.754300 -0.000006 -0.000006 -0.006827 -0.078171 -19.755200
0.000000 0.000000 0.000000 0.000000 0.000000 -0.000000 0.811835 92.375800 -3.269430 87.499900 -3.715570 5.986710 15.735700 0.000005 -0.000001 89.661100 85.350000 -90.072600 8.984550 -0.406207 -0.000000 1.533860 -0.032601 -0.821747 16.377300 -0.000001 -0.000001 5.603850 -1.871040 2.980400 6.456720 -0.000001 -0.000000 5.953980 -2.376430 -0.722521 12.994200 -0.242716 4.980390 -89.755700 -0.758515 -72.146000 5.348090 -0.000007 -0.000001 -66.729300 40.565000 -14.427700 24.328600 0.000019 0.000005 1.389440 3.456730 -21.913000 22.291600 -0.000001 0.000005 4.256050 5.506120 -6.782080 12.994500 -0.242716 -4.980390 89.953500 0.142386 -71.919200 -5.348130 -0.000001 -0.000004 -75.894300 -26.175100 -90.798900 -24.328900 0.000322 -0.000009 11.360100 -0.149872 -90.747300 -22.291500 -0.000108 -0.000004 20.458700 5.384300 -2.434040 -2.192480 -6.469440 -0.000000 -176.202000 -5.836760 -2.145670 39.081100 -0.000007 -0.000012 -0.065344 0.148430 23.760700 40.985400 -0.000006 -0.000013 0.608489 1.357340 -65.805000 11.754300 -0.000000 0.000003 -0.000047 -0.000539 -16.598500 -2.192510 6.469440 -0.000001 179.415000 11.428100 -179.373000 -39.081100 -0.002282 -0.040193 -0.004146 0.021020 19.559500 -40.985400 0.000008 0.000006 3.085700 7.451370 -64.534200 -11.754300 -0.000006 -0.000006 -0.006611 -0.076288 -19.678400
0.000000 0.000000 0.000000 0.000000 0.000000 -0.000000 0.803283 92.376200 -3.302220 87.464600 -3.543020 5.942570 15.735700 0.000005 -0.000001 89.697700 85.334300 -90.082900 8.984550 -0.406207 -0.000000 1.565270 -0.028376 -0.769368 16.377300 -0.000001 -0.000001 5.530030 -1.907430 3.006460 6.456720 -0.000001 -0.000000 5.969150 -2.411840 -0.769768 12.994200 -0.242716 4.980390 -89.763800 -0.733856 -72.158800 5.348090 -0.000007 -0.000001 -66.588900 40.700100 -14.531300 24.328600 0.000019 0.000005 1.309710 3.251380 -21.953800 22.291600 -0.000001 0.000005 4.287380 5.506480 -6.796390 12.994500 -0.242716 -4.980390 89.950200 0.152026 -71.868700 -5.348130 -0.000001 -0.000004 -75.275400 -26.437500 -90.087900 -24.328900 0.000322 -0.000009 11.360200 -0.281625 -91.403000 -22.291500 -0.000108 -0.000004 20.389000 5.382040 -2.362760 -2.192480 -6.469440 -0.000000 -176.155000 -5.880170 -2.273530 39.081100 -0.000007 -0.000012 -0.065715 0.148876 23.817000 40.985400 -0.000006 -0.000013 0.642062 1.526710 -65.784900 11.754300 -0.000000 0.000003 -0.000041 -0.000479 -16.596200 -2.192510 6.469440 -0.000001 179.476000 11.514600 -179.433000 -39.081100 -0.002282 -0.040193 -0.002046 0.015105 19.565600 -40.985400 0.000008 0.000006 3.210260 7.358100 -64.543300 -11.754300 -0.000006 -0.000006 -0.006842 -0.078303 -19.760600
0.000000 0.000000 0.000000 0.000000 0.000000 -0.000000 0.797516 92.382600 -3.322510 87.486300 -3.397560 5.944130 15.735700 0.000005 -0.000001 89.726000 85.316600 -90.102600 8.984550 -0.406207 -0.000000 1.600690 -0.024515 -0.752171 16.377300 -0.000001 -0.000001 5.547740 -1.921280 2.995180 6.456720 -0.000001 -0.000000 5.863290 -2.393620 -0.853151 12.994200 -0.242716 4.980390 -89.783700 -0.670182 -72.114100 5.348090 -0.000007 -0.000001 -66.616300 40.619000 -14.452800 24.328600 0.000019 0.000005 1.405470 3.472220 -22.052500 22.291600 -0.000001 0.000005 4.277600 5.505750 -6.766440 12.994500 -0.242716 -4.980390 89.934900 0.197892 -71.804600 -5.348130 -0.000001 -0.000004 -74.251200 -26.670300 -88.550000 -24.328900 0.000322 -0.000009 10.944700 -0.512780 -92.651700 -22.291500 -0.000108 -0.000004 20.187500 5.379480 -2.282080 -2.192480 -6.469440 -0.000000 -176.197000 -5.610970 -2.264820 39.081100 -0.000007 -0.000012 -0.067841 0.154102 23.760800 40.985400 -0.000006 -0.000013 0.626167 1.501800 -65.748100 11.754300 -0.000000 0.000003 -0.000040 -0.000468 -16.595800 -2.192510 6.469440 -0.000001 179.433000 11.676700 -179.411000 -39.081100 -0.002282 -0.040193 -0.003395 0.018944 19.522600 -40.985400 0.000008 0.000006 3.156200 7.362890 -64.511100 -11.754300 -0.000006 -0.000006 -0.006612 -0.076298 -19.678800
0.000000 0.000000 0.000000 0.000000 0.000000 -0.000000 0.789539 92.375500 -3.324060 87.494600 -3.244690 5.930670 15.735700 0.000005 -0.000001 89.777700 85.295000 -90.147100 8.984550 -0.406207 -0.000000 1.644040 -0.016772 -0.737988 16.377300 -0.000001 -0.000001 5.487870 -1.929500 2.988100 6.456720 -0.000001 -0.000000 5.807790 -2.357720 -0.941558 12.994200 -0.242716 4.980390 -89.807900 -0.594042 -72.077500 5.348090 -0.000007 -0.000001 -66.613100 40.669600 -14.430900 24.328600 0.000019 0.000005 1.345740 3.320820 -22.074100 22.291600 -0.000001 0.000005 4.323640 5.507070 -6.820750 12.994500 -0.242716 -4.980390 89.907300 0.280529 -71.719800 -5.348130 -0.000001 -0.000004 -72.646400 -26.788700 -85.819300 -24.328900 0.000322 -0.000009 10.534600 -0.861679 -94.624500 -22.291500 -0.000108 -0.000004 20.224300 5.375160 -2.147050 -2.192480 -6.469440 -0.000000 -176.224000 -5.531030 -2.346580 39.081100 -0.000007 -0.000012 -0.064825 0.146821 23.822500 40.985400 -0.000006 -0.000013 0.628686 1.488430 -65.750900 11.754300 -0.000000 0.000003 -0.000042 -0.000483 -16.596300 -2.192510 6.469440 -0.000001 179.426000 11.732300 -179.437000 -39.081100 -0.002282 -0.040193 -0.004732 0.022660 19.566300 -40.985400 0.000008 0.000006 3.087860 7.281040 -64.532300 -11.754300 -0.000006 -0.000006 -0.006674 -0.076840 -19.700900
0.000000 0.000000 0.000000 0.000000 0.000000 -0.000000 0.778182 92.379900 -3.320150 87.512400 -3.059550 5.976640 15.735700 0.000005 -0.000001 89.446000 85.275600 -89.814300 8.984550 -0.406207 -0.000000 1.682290 -0.071762 -0.734718 16.377300 -0.000001 -0.000001 5.410750 -1.968480 2.961030 6.456720 -0.000001 -0.000000 5.818770 -2.261650 -1.017140 12.994200 -0.242716 4.980390 -89.831000 -0.521778 -72.053300 5.348090 -0.000007 -0.000001 -66.781100 40.675500 -14.178400 24.328600 0.000019 0.000005 1.421310 3.502320 -22.104200 22.291600 -0.000001 0.000005 4.323560 5.508240 -6.868980 12.994500 -0.242716 -4.980390 89.826900 0.523252 -71.697800 -5.348130 -0.000001 -0.000004 -69.990400 -26.574400 -81.599000 -24.328900 0.000322 -0.000009 9.676180 -1.232210 -97.191800 -22.291500 -0.000108 -0.000004 20.295400 5.372090 -2.051280 -2.192480 -6.469440 -0.000000 -176.238000 -5.386560 -2.294550 39.081100 -0.000007 -0.000012 -0.064569 0.146542 23.779000 40.985400 -0.000006 -0.000013 0.633348 1.564450 -65.725800 11.754300 -0.000000 0.000003 -0.000042 -0.000488 -16.596500 -2.192510 6.469440 -0.000001 179.404000 11.852300 -179.359000 -39.081100 -0.002282 -0.040193 -0.003496 0.019209 19.542800 -40.985400 0.000008 0.000006 3.138810 7.208470 -64.547200 -11.754300 -0.000006 -0.000006 -0.006507 -0.075369 -19.640900
